<?xml version="1.0" encoding="UTF-8" standalone="no"?>
<!-- Created with Inkscape (http://www.inkscape.org/) -->

<svg
   xmlns:dc="http://purl.org/dc/elements/1.1/"
   xmlns:cc="http://creativecommons.org/ns#"
   xmlns:rdf="http://www.w3.org/1999/02/22-rdf-syntax-ns#"
   xmlns:svg="http://www.w3.org/2000/svg"
   xmlns="http://www.w3.org/2000/svg"
   xmlns:sodipodi="http://sodipodi.sourceforge.net/DTD/sodipodi-0.dtd"
   xmlns:inkscape="http://www.inkscape.org/namespaces/inkscape"
   width="553.64758"
   height="235.63116"
   id="svg2"
   version="1.1"
   inkscape:version="0.48.3.1 r9886"
   sodipodi:docname="logo2.svg"
   inkscape:export-filename="/home/gfannes/projects/dbr/logo2.png"
   inkscape:export-xdpi="90"
   inkscape:export-ydpi="90">
  <defs
     id="defs4" />
  <sodipodi:namedview
     id="base"
     pagecolor="#ffffff"
     bordercolor="#666666"
     borderopacity="1.0"
     inkscape:pageopacity="1"
     inkscape:pageshadow="2"
     inkscape:zoom="0.80231747"
     inkscape:cx="387.87519"
     inkscape:cy="78.684535"
     inkscape:document-units="px"
     inkscape:current-layer="text2985"
     showgrid="false"
     inkscape:window-width="1317"
     inkscape:window-height="744"
     inkscape:window-x="49"
     inkscape:window-y="24"
     inkscape:window-maximized="1"
     fit-margin-top="15"
     fit-margin-left="15"
     fit-margin-right="15"
     fit-margin-bottom="15" />
  <metadata
     id="metadata7">
    <rdf:RDF>
      <cc:Work
         rdf:about="">
        <dc:format>image/svg+xml</dc:format>
        <dc:type
           rdf:resource="http://purl.org/dc/dcmitype/StillImage" />
        <dc:title></dc:title>
      </cc:Work>
    </rdf:RDF>
  </metadata>
  <g
     inkscape:label="Layer 1"
     inkscape:groupmode="layer"
     id="layer1"
     transform="translate(-138.30589,-489.69796)">
    <g
       style="font-size:43.58648682px;font-style:normal;font-weight:normal;line-height:125%;letter-spacing:0px;word-spacing:0px;fill:#000000;fill-opacity:1;stroke:none;font-family:Sans"
       id="text2985">
      <path
         d="m 199.04191,513.97712 3.91597,0 0,23.83636 -3.91597,0 0,-23.83636 m 0,-9.27916 3.91597,0 0,4.95882 -3.91597,0 0,-4.95882"
         style="fill:#008000"
         id="path3023" />
      <path
         d="m 252.75884,513.97712 3.91598,0 0,23.83636 -3.91598,0 0,-23.83636 m 0,-9.27916 3.91598,0 0,4.95882 -3.91598,0 0,-4.95882"
         style="fill:#008000"
         id="path3025" />
      <path
         d="m 184.80394,559.18107 9.02376,0 0,3.04339 -5.10779,0 0,32.775 5.10779,0 0,3.04339 -9.02376,0 0,-38.86178"
         style="fill:#008000"
         id="path3027" />
      <path
         d="m 211.93908,563.35243 c -2.21339,3e-5 -3.88051,1.09253 -5.00138,3.2775 -1.10669,2.17084 -1.66004,5.44124 -1.66003,9.81122 -1e-5,4.35582 0.55334,7.62622 1.66003,9.81122 1.12087,2.17081 2.78799,3.25622 5.00138,3.25621 2.22755,10e-6 3.89468,-1.0854 5.00138,-3.25621 1.12086,-2.185 1.6813,-5.4554 1.68132,-9.81122 -2e-5,-4.36998 -0.56046,-7.64038 -1.68132,-9.81122 -1.1067,-2.18497 -2.77383,-3.27747 -5.00138,-3.2775 m 0,-3.40519 c 3.56125,3e-5 6.27831,1.41177 8.15119,4.23521 1.88702,2.80931 2.83054,6.89554 2.83056,12.2587 -2e-5,5.349 -0.94354,9.43523 -2.83056,12.2587 -1.87288,2.80928 -4.58994,4.21393 -8.15119,4.21393 -3.56127,0 -6.28543,-1.40465 -8.17246,-4.21393 -1.87286,-2.82347 -2.80929,-6.9097 -2.80929,-12.2587 0,-5.36316 0.93643,-9.44939 2.80929,-12.2587 1.88703,-2.82344 4.61119,-4.23518 8.17246,-4.23521"
         style="fill:#008000"
         id="path3029" />
      <path
         d="m 253.56758,563.35243 c -2.21339,3e-5 -3.88052,1.09253 -5.00138,3.2775 -1.1067,2.17084 -1.66004,5.44124 -1.66003,9.81122 -1e-5,4.35582 0.55333,7.62622 1.66003,9.81122 1.12086,2.17081 2.78799,3.25622 5.00138,3.25621 2.22755,10e-6 3.89467,-1.0854 5.00138,-3.25621 1.12085,-2.185 1.68129,-5.4554 1.68131,-9.81122 -2e-5,-4.36998 -0.56046,-7.64038 -1.68131,-9.81122 -1.10671,-2.18497 -2.77383,-3.27747 -5.00138,-3.2775 m 0,-3.40519 c 3.56124,3e-5 6.2783,1.41177 8.15118,4.23521 1.88702,2.80931 2.83054,6.89554 2.83057,12.2587 -3e-5,5.349 -0.94355,9.43523 -2.83057,12.2587 -1.87288,2.80928 -4.58994,4.21393 -8.15118,4.21393 -3.56128,0 -6.28543,-1.40465 -8.17247,-4.21393 -1.87286,-2.82347 -2.80929,-6.9097 -2.80929,-12.2587 0,-5.36316 0.93643,-9.44939 2.80929,-12.2587 1.88704,-2.82344 4.61119,-4.23518 8.17247,-4.23521"
         style="fill:#008000"
         id="path3031" />
      <path
         d="m 280.724,559.18107 0,38.86178 -9.02376,0 0,-3.04339 5.08651,0 0,-32.775 -5.08651,0 0,-3.04339 9.02376,0"
         style="fill:#008000"
         id="path3033" />
      <path
         d="m 178.24894,615.00497 3.61802,0 -11.06688,35.81839 -3.61802,0 11.06688,-35.81839"
         style="fill:#008000"
         id="path3035" />
      <path
         d="m 191.06098,613.47264 0,43.58648 -3.61801,0 0,-43.58648 3.61801,0"
         style="fill:#008000"
         id="path3037" />
      <path
         d="m 218.85588,654.01573 0,3.04339 -22.64454,0 0,-3.04339 22.64454,0"
         style="fill:#008000"
         id="path3039" />
      <path
         d="m 240.64913,654.01573 0,3.04339 -22.64454,0 0,-3.04339 22.64454,0"
         style="fill:#008000"
         id="path3041" />
      <path
         d="m 262.44237,654.01573 0,3.04339 -22.64454,0 0,-3.04339 22.64454,0"
         style="fill:#008000"
         id="path3043" />
      <path
         d="m 271.16818,613.47264 0,43.58648 -3.61802,0 0,-43.58648 3.61802,0"
         style="fill:#008000"
         id="path3045" />
      <path
         d="m 280.36221,615.00497 11.06688,35.81839 -3.61802,0 -11.06688,-35.81839 3.61802,0"
         style="fill:#008000"
         id="path3047" />
      <path
         d="m 171.22573,681.08703 c -0.43986,-0.25537 -0.92226,-0.43982 -1.44721,-0.55335 -0.51079,-0.12767 -1.07833,-0.19152 -1.7026,-0.19154 -2.21339,2e-5 -3.91598,0.72362 -5.10779,2.17081 -1.17764,1.43304 -1.76645,3.49743 -1.76644,6.1932 l 0,12.55665 -3.93726,0 0,-23.83636 3.93726,0 0,3.70315 c 0.82291,-1.44719 1.89413,-2.5184 3.21365,-3.21365 1.3195,-0.70939 2.92278,-1.0641 4.80984,-1.06412 0.26956,2e-5 0.56751,0.0213 0.89386,0.0638 0.32631,0.0284 0.68812,0.0781 1.08541,0.14898 l 0.0213,4.02239"
         style="fill:#d40000"
         id="path3049" />
      <path
         d="m 183.67597,680.17188 c -2.09988,2e-5 -3.75991,0.82294 -4.9801,2.46877 -1.2202,1.63167 -1.8303,3.87342 -1.83029,6.72525 -1e-5,2.85186 0.603,5.10071 1.80901,6.74655 1.22018,1.63165 2.88731,2.44748 5.00138,2.44748 2.08566,0 3.7386,-0.82292 4.95881,-2.46877 1.22018,-1.64583 1.83027,-3.88758 1.83029,-6.72526 -2e-5,-2.82345 -0.61011,-5.05811 -1.83029,-6.70397 -1.22021,-1.66001 -2.87315,-2.49003 -4.95881,-2.49005 m 0,-3.32006 c 3.40518,2e-5 6.07967,1.10671 8.02349,3.32006 1.94377,2.2134 2.91567,5.27807 2.9157,9.19402 -3e-5,3.9018 -0.97193,6.96647 -2.9157,9.19403 -1.94382,2.21338 -4.61831,3.32006 -8.02349,3.32006 -3.41939,0 -6.10098,-1.10668 -8.04477,-3.32006 -1.92962,-2.22756 -2.89442,-5.29223 -2.89442,-9.19403 0,-3.91595 0.9648,-6.98062 2.89442,-9.19402 1.94379,-2.21335 4.62538,-3.32004 8.04477,-3.32006"
         style="fill:#d40000"
         id="path3051" />
      <path
         d="m 218.19613,689.3659 c -3e-5,-2.88021 -0.59593,-5.13615 -1.78773,-6.76782 -1.17765,-1.64582 -2.80221,-2.46874 -4.87369,-2.46876 -2.0715,2e-5 -3.70316,0.82294 -4.89496,2.46876 -1.17764,1.63167 -1.76646,3.88761 -1.76645,6.76782 -1e-5,2.88024 0.58881,5.14327 1.76645,6.78911 1.1918,1.63166 2.82346,2.44749 4.89496,2.44748 2.07148,10e-6 3.69604,-0.81582 4.87369,-2.44748 1.1918,-1.64584 1.7877,-3.90887 1.78773,-6.78911 m -13.32283,-8.32144 c 0.82292,-1.41881 1.85866,-2.46874 3.10724,-3.1498 1.26275,-0.69521 2.76671,-1.04282 4.51188,-1.04284 2.8944,2e-5 5.24256,1.14927 7.0445,3.44775 1.81608,2.29853 2.72413,5.32064 2.72416,9.06633 -3e-5,3.74573 -0.90808,6.76783 -2.72416,9.06633 -1.80194,2.29851 -4.1501,3.44776 -7.0445,3.44776 -1.74517,0 -3.24913,-0.34052 -4.51188,-1.02155 -1.24858,-0.69523 -2.28432,-1.75226 -3.10724,-3.17109 l 0,3.57545 -3.93725,0 0,-33.11551 3.93725,0 0,12.89717"
         style="fill:#008000"
         id="path3053" />
      <path
         d="m 237.98882,680.17188 c -2.09988,2e-5 -3.75991,0.82294 -4.9801,2.46877 -1.2202,1.63167 -1.8303,3.87342 -1.83029,6.72525 -1e-5,2.85186 0.603,5.10071 1.80901,6.74655 1.22019,1.63165 2.88731,2.44748 5.00138,2.44748 2.08567,0 3.7386,-0.82292 4.95881,-2.46877 1.22018,-1.64583 1.83028,-3.88758 1.8303,-6.72526 -2e-5,-2.82345 -0.61012,-5.05811 -1.8303,-6.70397 -1.22021,-1.66001 -2.87314,-2.49003 -4.95881,-2.49005 m 0,-3.32006 c 3.40518,2e-5 6.07967,1.10671 8.02349,3.32006 1.94377,2.2134 2.91567,5.27807 2.9157,9.19402 -3e-5,3.9018 -0.97193,6.96647 -2.9157,9.19403 -1.94382,2.21338 -4.61831,3.32006 -8.02349,3.32006 -3.41939,0 -6.10098,-1.10668 -8.04477,-3.32006 -1.92962,-2.22756 -2.89442,-5.29223 -2.89442,-9.19403 0,-3.91595 0.9648,-6.98062 2.89442,-9.19402 1.94379,-2.21335 4.62538,-3.32004 8.04477,-3.32006"
         style="fill:#d40000"
         id="path3055" />
      <path
         d="m 272.50898,689.3659 c -2e-5,-2.88021 -0.59593,-5.13615 -1.78773,-6.76782 -1.17765,-1.64582 -2.80221,-2.46874 -4.87368,-2.46876 -2.07151,2e-5 -3.70316,0.82294 -4.89497,2.46876 -1.17764,1.63167 -1.76645,3.88761 -1.76645,6.76782 0,2.88024 0.58881,5.14327 1.76645,6.78911 1.19181,1.63166 2.82346,2.44749 4.89497,2.44748 2.07147,10e-6 3.69603,-0.81582 4.87368,-2.44748 1.1918,-1.64584 1.78771,-3.90887 1.78773,-6.78911 m -13.32283,-8.32144 c 0.82292,-1.41881 1.85866,-2.46874 3.10724,-3.1498 1.26275,-0.69521 2.76671,-1.04282 4.51189,-1.04284 2.89439,2e-5 5.24256,1.14927 7.04449,3.44775 1.81608,2.29853 2.72413,5.32064 2.72416,9.06633 -3e-5,3.74573 -0.90808,6.76783 -2.72416,9.06633 -1.80193,2.29851 -4.1501,3.44776 -7.04449,3.44776 -1.74518,0 -3.24914,-0.34052 -4.51189,-1.02155 -1.24858,-0.69523 -2.28432,-1.75226 -3.10724,-3.17109 l 0,3.57545 -3.93725,0 0,-33.11551 3.93725,0 0,12.89717"
         style="fill:#008000"
         id="path3057" />
      <path
         d="m 282.66071,691.85595 0,-14.42951 3.91598,0 0,14.28054 c -10e-6,2.25594 0.43983,3.95145 1.31951,5.0865 0.87967,1.12088 2.19918,1.68132 3.95854,1.68132 2.11404,0 3.78117,-0.67394 5.00138,-2.02183 1.23436,-1.34789 1.85155,-3.18527 1.85157,-5.51216 l 0,-13.51437 3.91598,0 0,23.83636 -3.91598,0 0,-3.66058 c -0.95063,1.44721 -2.05732,2.52552 -3.32006,3.23493 -1.24859,0.69523 -2.70289,1.04284 -4.36291,1.04284 -2.73835,0 -4.81694,-0.85129 -6.23576,-2.55389 -1.41883,-1.7026 -2.12825,-4.19264 -2.12825,-7.47015 m 9.85379,-15.00413 0,0"
         style="fill:#d40000"
         id="path3059" />
      <path
         d="m 326.41746,681.04446 0,-12.89717 3.91598,0 0,33.11551 -3.91598,0 0,-3.57545 c -0.82294,1.41883 -1.86578,2.47586 -3.12852,3.17109 -1.24859,0.68103 -2.75255,1.02155 -4.51188,1.02155 -2.88024,0 -5.2284,-1.14925 -7.0445,-3.44776 -1.80192,-2.2985 -2.70287,-5.3206 -2.70287,-9.06633 0,-3.74569 0.90095,-6.7678 2.70287,-9.06633 1.8161,-2.29848 4.16426,-3.44773 7.0445,-3.44775 1.75933,2e-5 3.26329,0.34763 4.51188,1.04284 1.26274,0.68106 2.30558,1.73099 3.12852,3.1498 m -13.3441,8.32144 c -10e-6,2.88024 0.58881,5.14327 1.76644,6.78911 1.19181,1.63166 2.82346,2.44749 4.89497,2.44748 2.07148,10e-6 3.70313,-0.81582 4.89497,-2.44748 1.19179,-1.64584 1.7877,-3.90887 1.78772,-6.78911 -2e-5,-2.88021 -0.59593,-5.13615 -1.78772,-6.76782 -1.19184,-1.64582 -2.82349,-2.46874 -4.89497,-2.46876 -2.07151,2e-5 -3.70316,0.82294 -4.89497,2.46876 -1.17763,1.63167 -1.76645,3.88761 -1.76644,6.76782"
         style="fill:#d40000"
         id="path3061" />
      <path
         d="m 354.08467,681.04446 0,-12.89717 3.91597,0 0,33.11551 -3.91597,0 0,-3.57545 c -0.82294,1.41883 -1.86578,2.47586 -3.12852,3.17109 -1.24859,0.68103 -2.75255,1.02155 -4.51189,1.02155 -2.88023,0 -5.22839,-1.14925 -7.04449,-3.44776 -1.80192,-2.2985 -2.70288,-5.3206 -2.70287,-9.06633 -1e-5,-3.74569 0.90095,-6.7678 2.70287,-9.06633 1.8161,-2.29848 4.16426,-3.44773 7.04449,-3.44775 1.75934,2e-5 3.2633,0.34763 4.51189,1.04284 1.26274,0.68106 2.30558,1.73099 3.12852,3.1498 m -13.34411,8.32144 c 0,2.88024 0.58881,5.14327 1.76645,6.78911 1.19181,1.63166 2.82346,2.44749 4.89496,2.44748 2.07148,10e-6 3.70314,-0.81582 4.89497,-2.44748 1.1918,-1.64584 1.78771,-3.90887 1.78773,-6.78911 -2e-5,-2.88021 -0.59593,-5.13615 -1.78773,-6.76782 -1.19183,-1.64582 -2.82349,-2.46874 -4.89497,-2.46876 -2.0715,2e-5 -3.70315,0.82294 -4.89496,2.46876 -1.17764,1.63167 -1.76645,3.88761 -1.76645,6.76782"
         style="fill:#d40000"
         id="path3063" />
      <path
         d="m 375.98431,703.47618 c -1.1067,2.83766 -2.18501,4.68923 -3.23493,5.55472 -1.04995,0.86548 -2.45459,1.29822 -4.21393,1.29823 l -3.12852,0 0,-3.2775 2.2985,0 c 1.07831,0 1.91542,-0.25539 2.51133,-0.76617 0.5959,-0.51078 1.25566,-1.71679 1.97927,-3.61802 l 0.70232,-1.78772 -9.64095,-23.45328 4.15008,0 7.44886,18.64344 7.44886,-18.64344 4.15008,0 -10.47097,26.04974"
         style="fill:#d40000"
         id="path3065" />
    </g>
    <g
       style="font-size:43.58648682px;font-style:normal;font-weight:normal;line-height:125%;letter-spacing:0px;word-spacing:0px;fill:#000000;fill-opacity:1;stroke:none;font-family:Sans"
       id="text3004">
      <path
         d="m 454.55175,513.97712 3.91597,0 0,23.83636 -3.91597,0 0,-23.83636 m 0,-9.27916 3.91597,0 0,4.95882 -3.91597,0 0,-4.95882"
         style="fill:#008000"
         id="path3068" />
      <path
         d="m 508.26869,513.97712 3.91597,0 0,23.83636 -3.91597,0 0,-23.83636 m 0,-9.27916 3.91597,0 0,4.95882 -3.91597,0 0,-4.95882"
         style="fill:#008000"
         id="path3070" />
      <path
         d="m 440.31378,559.18107 9.02377,0 0,3.04339 -5.1078,0 0,32.775 5.1078,0 0,3.04339 -9.02377,0 0,-38.86178"
         style="fill:#008000"
         id="path3072" />
      <path
         d="m 467.44892,563.35243 c -2.21338,3e-5 -3.88051,1.09253 -5.00137,3.2775 -1.1067,2.17084 -1.66004,5.44124 -1.66004,9.81122 0,4.35582 0.55334,7.62622 1.66004,9.81122 1.12086,2.17081 2.78799,3.25622 5.00137,3.25621 2.22755,10e-6 3.89468,-1.0854 5.00138,-3.25621 1.12086,-2.185 1.6813,-5.4554 1.68132,-9.81122 -2e-5,-4.36998 -0.56046,-7.64038 -1.68132,-9.81122 -1.1067,-2.18497 -2.77383,-3.27747 -5.00138,-3.2775 m 0,-3.40519 c 3.56125,3e-5 6.27831,1.41177 8.15119,4.23521 1.88702,2.80931 2.83054,6.89554 2.83057,12.2587 -3e-5,5.349 -0.94355,9.43523 -2.83057,12.2587 -1.87288,2.80928 -4.58994,4.21393 -8.15119,4.21393 -3.56127,0 -6.28542,-1.40465 -8.17246,-4.21393 -1.87286,-2.82347 -2.80929,-6.9097 -2.80929,-12.2587 0,-5.36316 0.93643,-9.44939 2.80929,-12.2587 1.88704,-2.82344 4.61119,-4.23518 8.17246,-4.23521"
         style="fill:#008000"
         id="path3074" />
      <path
         d="m 509.07742,563.35243 c -2.21339,3e-5 -3.88051,1.09253 -5.00138,3.2775 -1.1067,2.17084 -1.66004,5.44124 -1.66003,9.81122 -1e-5,4.35582 0.55333,7.62622 1.66003,9.81122 1.12087,2.17081 2.78799,3.25622 5.00138,3.25621 2.22755,10e-6 3.89467,-1.0854 5.00138,-3.25621 1.12085,-2.185 1.68129,-5.4554 1.68131,-9.81122 -2e-5,-4.36998 -0.56046,-7.64038 -1.68131,-9.81122 -1.10671,-2.18497 -2.77383,-3.27747 -5.00138,-3.2775 m 0,-3.40519 c 3.56125,3e-5 6.27831,1.41177 8.15118,4.23521 1.88702,2.80931 2.83055,6.89554 2.83057,12.2587 -2e-5,5.349 -0.94355,9.43523 -2.83057,12.2587 -1.87287,2.80928 -4.58993,4.21393 -8.15118,4.21393 -3.56128,0 -6.28543,-1.40465 -8.17247,-4.21393 -1.87286,-2.82347 -2.80929,-6.9097 -2.80928,-12.2587 -10e-6,-5.36316 0.93642,-9.44939 2.80928,-12.2587 1.88704,-2.82344 4.61119,-4.23518 8.17247,-4.23521"
         style="fill:#008000"
         id="path3076" />
      <path
         d="m 536.23384,559.18107 0,38.86178 -9.02376,0 0,-3.04339 5.08651,0 0,-32.775 -5.08651,0 0,-3.04339 9.02376,0"
         style="fill:#008000"
         id="path3078" />
      <path
         d="m 433.75878,615.00497 3.61802,0 -11.06688,35.81839 -3.61802,0 11.06688,-35.81839"
         style="fill:#008000"
         id="path3080" />
      <path
         d="m 446.57083,613.47264 0,43.58648 -3.61802,0 0,-43.58648 3.61802,0"
         style="fill:#008000"
         id="path3082" />
      <path
         d="m 474.36572,654.01573 0,3.04339 -22.64454,0 0,-3.04339 22.64454,0"
         style="fill:#008000"
         id="path3084" />
      <path
         d="m 496.15897,654.01573 0,3.04339 -22.64454,0 0,-3.04339 22.64454,0"
         style="fill:#008000"
         id="path3086" />
      <path
         d="m 517.95221,654.01573 0,3.04339 -22.64454,0 0,-3.04339 22.64454,0"
         style="fill:#008000"
         id="path3088" />
      <path
         d="m 526.67803,613.47264 0,43.58648 -3.61802,0 0,-43.58648 3.61802,0"
         style="fill:#008000"
         id="path3090" />
      <path
         d="m 535.87205,615.00497 11.06688,35.81839 -3.61802,0 -11.06688,-35.81839 3.61802,0"
         style="fill:#008000"
         id="path3092" />
      <path
         d="m 426.73557,681.08703 c -0.43986,-0.25537 -0.92226,-0.43982 -1.44721,-0.55335 -0.51079,-0.12767 -1.07832,-0.19152 -1.70259,-0.19154 -2.21339,2e-5 -3.91599,0.72362 -5.1078,2.17081 -1.17763,1.43304 -1.76645,3.49743 -1.76644,6.1932 l 0,12.55665 -3.93726,0 0,-23.83636 3.93726,0 0,3.70315 c 0.82291,-1.44719 1.89413,-2.5184 3.21365,-3.21365 1.3195,-0.70939 2.92278,-1.0641 4.80984,-1.06412 0.26956,2e-5 0.56751,0.0213 0.89386,0.0638 0.32632,0.0284 0.68812,0.0781 1.08541,0.14898 l 0.0213,4.02239"
         style="fill:#d40000"
         id="path3094" />
      <path
         d="m 439.18581,680.17188 c -2.09988,2e-5 -3.75991,0.82294 -4.9801,2.46877 -1.2202,1.63167 -1.83029,3.87342 -1.83029,6.72525 0,2.85186 0.603,5.10071 1.80901,6.74655 1.22019,1.63165 2.88731,2.44748 5.00138,2.44748 2.08567,0 3.7386,-0.82292 4.95881,-2.46877 1.22018,-1.64583 1.83028,-3.88758 1.8303,-6.72526 -2e-5,-2.82345 -0.61012,-5.05811 -1.8303,-6.70397 -1.22021,-1.66001 -2.87314,-2.49003 -4.95881,-2.49005 m 0,-3.32006 c 3.40518,2e-5 6.07967,1.10671 8.02349,3.32006 1.94377,2.2134 2.91567,5.27807 2.9157,9.19402 -3e-5,3.9018 -0.97193,6.96647 -2.9157,9.19403 -1.94382,2.21338 -4.61831,3.32006 -8.02349,3.32006 -3.41939,0 -6.10098,-1.10668 -8.04477,-3.32006 -1.92961,-2.22756 -2.89442,-5.29223 -2.89442,-9.19403 0,-3.91595 0.96481,-6.98062 2.89442,-9.19402 1.94379,-2.21335 4.62538,-3.32004 8.04477,-3.32006"
         style="fill:#d40000"
         id="path3096" />
      <path
         d="m 473.70597,689.3659 c -2e-5,-2.88021 -0.59593,-5.13615 -1.78773,-6.76782 -1.17765,-1.64582 -2.80221,-2.46874 -4.87368,-2.46876 -2.07151,2e-5 -3.70316,0.82294 -4.89497,2.46876 -1.17764,1.63167 -1.76645,3.88761 -1.76645,6.76782 0,2.88024 0.58881,5.14327 1.76645,6.78911 1.19181,1.63166 2.82346,2.44749 4.89497,2.44748 2.07147,10e-6 3.69603,-0.81582 4.87368,-2.44748 1.1918,-1.64584 1.78771,-3.90887 1.78773,-6.78911 m -13.32283,-8.32144 c 0.82292,-1.41881 1.85866,-2.46874 3.10724,-3.1498 1.26275,-0.69521 2.76671,-1.04282 4.51189,-1.04284 2.89439,2e-5 5.24256,1.14927 7.04449,3.44775 1.81608,2.29853 2.72413,5.32064 2.72416,9.06633 -3e-5,3.74573 -0.90808,6.76783 -2.72416,9.06633 -1.80193,2.29851 -4.1501,3.44776 -7.04449,3.44776 -1.74518,0 -3.24914,-0.34052 -4.51189,-1.02155 -1.24858,-0.69523 -2.28432,-1.75226 -3.10724,-3.17109 l 0,3.57545 -3.93725,0 0,-33.11551 3.93725,0 0,12.89717"
         style="fill:#008000"
         id="path3098" />
      <path
         d="m 493.49866,680.17188 c -2.09988,2e-5 -3.75991,0.82294 -4.9801,2.46877 -1.2202,1.63167 -1.83029,3.87342 -1.83029,6.72525 0,2.85186 0.603,5.10071 1.80901,6.74655 1.22019,1.63165 2.88731,2.44748 5.00138,2.44748 2.08567,0 3.7386,-0.82292 4.95882,-2.46877 1.22017,-1.64583 1.83027,-3.88758 1.83029,-6.72526 -2e-5,-2.82345 -0.61012,-5.05811 -1.83029,-6.70397 -1.22022,-1.66001 -2.87315,-2.49003 -4.95882,-2.49005 m 0,-3.32006 c 3.40518,2e-5 6.07967,1.10671 8.02349,3.32006 1.94378,2.2134 2.91567,5.27807 2.9157,9.19402 -3e-5,3.9018 -0.97192,6.96647 -2.9157,9.19403 -1.94382,2.21338 -4.61831,3.32006 -8.02349,3.32006 -3.41939,0 -6.10098,-1.10668 -8.04477,-3.32006 -1.92961,-2.22756 -2.89442,-5.29223 -2.89442,-9.19403 0,-3.91595 0.96481,-6.98062 2.89442,-9.19402 1.94379,-2.21335 4.62538,-3.32004 8.04477,-3.32006"
         style="fill:#d40000"
         id="path3100" />
      <path
         d="m 528.01882,689.3659 c -2e-5,-2.88021 -0.59593,-5.13615 -1.78773,-6.76782 -1.17765,-1.64582 -2.80221,-2.46874 -4.87368,-2.46876 -2.07151,2e-5 -3.70316,0.82294 -4.89497,2.46876 -1.17764,1.63167 -1.76645,3.88761 -1.76644,6.76782 -10e-6,2.88024 0.5888,5.14327 1.76644,6.78911 1.19181,1.63166 2.82346,2.44749 4.89497,2.44748 2.07147,10e-6 3.69603,-0.81582 4.87368,-2.44748 1.1918,-1.64584 1.78771,-3.90887 1.78773,-6.78911 M 514.696,681.04446 c 0.82291,-1.41881 1.85865,-2.46874 3.10724,-3.1498 1.26274,-0.69521 2.7667,-1.04282 4.51188,-1.04284 2.89439,2e-5 5.24256,1.14927 7.04449,3.44775 1.81608,2.29853 2.72413,5.32064 2.72416,9.06633 -3e-5,3.74573 -0.90808,6.76783 -2.72416,9.06633 -1.80193,2.29851 -4.1501,3.44776 -7.04449,3.44776 -1.74518,0 -3.24914,-0.34052 -4.51188,-1.02155 -1.24859,-0.69523 -2.28433,-1.75226 -3.10724,-3.17109 l 0,3.57545 -3.93726,0 0,-33.11551 3.93726,0 0,12.89717"
         style="fill:#008000"
         id="path3102" />
      <path
         d="m 538.17056,691.85595 0,-14.42951 3.91597,0 0,14.28054 c -1e-5,2.25594 0.43983,3.95145 1.31951,5.0865 0.87967,1.12088 2.19918,1.68132 3.95854,1.68132 2.11404,0 3.78117,-0.67394 5.00138,-2.02183 1.23436,-1.34789 1.85155,-3.18527 1.85157,-5.51216 l 0,-13.51437 3.91598,0 0,23.83636 -3.91598,0 0,-3.66058 c -0.95063,1.44721 -2.05732,2.52552 -3.32006,3.23493 -1.24859,0.69523 -2.70289,1.04284 -4.36291,1.04284 -2.73835,0 -4.81693,-0.85129 -6.23576,-2.55389 -1.41883,-1.7026 -2.12825,-4.19264 -2.12824,-7.47015 m 9.85378,-15.00413 0,0"
         style="fill:#d40000"
         id="path3104" />
      <path
         d="m 581.9273,681.04446 0,-12.89717 3.91598,0 0,33.11551 -3.91598,0 0,-3.57545 c -0.82294,1.41883 -1.86578,2.47586 -3.12852,3.17109 -1.24858,0.68103 -2.75254,1.02155 -4.51188,1.02155 -2.88024,0 -5.2284,-1.14925 -7.0445,-3.44776 -1.80191,-2.2985 -2.70287,-5.3206 -2.70287,-9.06633 0,-3.74569 0.90096,-6.7678 2.70287,-9.06633 1.8161,-2.29848 4.16426,-3.44773 7.0445,-3.44775 1.75934,2e-5 3.2633,0.34763 4.51188,1.04284 1.26274,0.68106 2.30558,1.73099 3.12852,3.1498 m -13.3441,8.32144 c -1e-5,2.88024 0.58881,5.14327 1.76644,6.78911 1.19181,1.63166 2.82347,2.44749 4.89497,2.44748 2.07148,10e-6 3.70313,-0.81582 4.89497,-2.44748 1.1918,-1.64584 1.78771,-3.90887 1.78772,-6.78911 -10e-6,-2.88021 -0.59592,-5.13615 -1.78772,-6.76782 -1.19184,-1.64582 -2.82349,-2.46874 -4.89497,-2.46876 -2.0715,2e-5 -3.70316,0.82294 -4.89497,2.46876 -1.17763,1.63167 -1.76645,3.88761 -1.76644,6.76782"
         style="fill:#d40000"
         id="path3106" />
      <path
         d="m 609.59451,681.04446 0,-12.89717 3.91597,0 0,33.11551 -3.91597,0 0,-3.57545 c -0.82294,1.41883 -1.86578,2.47586 -3.12852,3.17109 -1.24859,0.68103 -2.75255,1.02155 -4.51188,1.02155 -2.88024,0 -5.2284,-1.14925 -7.0445,-3.44776 -1.80192,-2.2985 -2.70288,-5.3206 -2.70287,-9.06633 -10e-6,-3.74569 0.90095,-6.7678 2.70287,-9.06633 1.8161,-2.29848 4.16426,-3.44773 7.0445,-3.44775 1.75933,2e-5 3.26329,0.34763 4.51188,1.04284 1.26274,0.68106 2.30558,1.73099 3.12852,3.1498 m -13.3441,8.32144 c -10e-6,2.88024 0.5888,5.14327 1.76644,6.78911 1.19181,1.63166 2.82346,2.44749 4.89497,2.44748 2.07147,10e-6 3.70313,-0.81582 4.89496,-2.44748 1.1918,-1.64584 1.78771,-3.90887 1.78773,-6.78911 -2e-5,-2.88021 -0.59593,-5.13615 -1.78773,-6.76782 -1.19183,-1.64582 -2.82349,-2.46874 -4.89496,-2.46876 -2.07151,2e-5 -3.70316,0.82294 -4.89497,2.46876 -1.17764,1.63167 -1.76645,3.88761 -1.76644,6.76782"
         style="fill:#d40000"
         id="path3108" />
      <path
         d="m 621.57653,677.42644 3.91597,0 0,23.83636 -3.91597,0 0,-23.83636 m 0,-9.27915 3.91597,0 0,4.95881 -3.91597,0 0,-4.95881"
         style="fill:#d40000"
         id="path3110" />
      <path
         d="m 654.05357,688.36563 0,1.91542 -18.00497,0 c 0.17025,2.69579 0.97899,4.75309 2.4262,6.17192 1.46139,1.40464 3.49031,2.10696 6.08679,2.10696 1.50394,0 2.95824,-0.18445 4.3629,-0.55334 1.41881,-0.3689 2.82345,-0.92224 4.21393,-1.66004 l 0,3.70315 c -1.40467,0.59591 -2.84478,1.04994 -4.32034,1.36208 -1.4756,0.31214 -2.97247,0.46821 -4.4906,0.46821 -3.80248,0 -6.81749,-1.10668 -9.04505,-3.32006 -2.21338,-2.21337 -3.32006,-5.2071 -3.32006,-8.9812 0,-3.90177 1.04993,-6.99482 3.1498,-9.27916 2.11405,-2.29848 4.95881,-3.44773 8.53427,-3.44775 3.20654,2e-5 5.73915,1.03577 7.59784,3.10724 1.87283,2.05732 2.80926,4.85951 2.80929,8.40657 m -3.91598,-1.14925 c -0.0284,-2.14242 -0.6314,-3.85211 -1.80901,-5.12908 -1.16346,-1.27693 -2.70998,-1.9154 -4.63957,-1.91542 -2.18502,2e-5 -3.93727,0.61721 -5.25677,1.85157 -1.30534,1.23441 -2.05731,2.97247 -2.25594,5.21421 l 13.96129,-0.0213"
         style="fill:#d40000"
         id="path3112" />
      <path
         d="m 675.67655,678.12876 0,3.70315 c -1.10671,-0.56751 -2.25596,-0.99316 -3.44776,-1.27695 -1.19183,-0.28374 -2.42622,-0.42562 -3.70315,-0.42564 -1.94381,2e-5 -3.4052,0.29797 -4.38419,0.89386 -0.96481,0.59593 -1.44721,1.48979 -1.44721,2.68159 0,0.90807 0.34761,1.62458 1.04284,2.14953 0.69522,0.51079 2.09277,1.00029 4.19265,1.46849 l 1.3408,0.29795 c 2.78089,0.59592 4.75306,1.44013 5.91652,2.53262 1.17761,1.07832 1.76642,2.58937 1.76644,4.53316 -2e-5,2.21338 -0.87969,3.96564 -2.63902,5.25677 -1.74518,1.29114 -4.15009,1.9367 -7.21476,1.9367 -1.27695,0 -2.61065,-0.12769 -4.0011,-0.38308 -1.37627,-0.2412 -2.83057,-0.6101 -4.3629,-1.10669 l 0,-4.04367 c 1.4472,0.75199 2.87312,1.31952 4.27777,1.7026 1.40464,0.3689 2.79509,0.55335 4.17136,0.55334 1.84447,10e-6 3.2633,-0.31214 4.2565,-0.93642 0.99316,-0.63847 1.48975,-1.53234 1.48977,-2.68159 -2e-5,-1.06412 -0.36182,-1.87995 -1.08541,-2.44749 -0.70943,-0.56752 -2.27723,-1.11377 -4.70342,-1.63875 l -1.36208,-0.31923 c -2.42621,-0.51077 -4.17846,-1.29113 -5.25677,-2.34108 -1.07831,-1.06411 -1.61747,-2.51841 -1.61746,-4.3629 -10e-6,-2.24173 0.79454,-3.97271 2.38363,-5.19292 1.58909,-1.22017 3.84502,-1.83027 6.76782,-1.83029 1.4472,2e-5 2.80928,0.10643 4.08624,0.31923 1.27693,0.21285 2.45456,0.53209 3.53289,0.95771"
         style="fill:#d40000"
         id="path3114" />
    </g>
  </g>
</svg>
